<?xml version="1.0" encoding="utf-8" standalone="no"?>
<!DOCTYPE svg PUBLIC "-//W3C//DTD SVG 1.1//EN"
  "http://www.w3.org/Graphics/SVG/1.1/DTD/svg11.dtd">
<svg xmlns:xlink="http://www.w3.org/1999/xlink" width="800.39952pt" height="296.39952pt" viewBox="0 0 800.39952 296.39952" xmlns="http://www.w3.org/2000/svg" version="1.1">
 <metadata>
  <rdf:RDF xmlns:dc="http://purl.org/dc/elements/1.1/" xmlns:cc="http://creativecommons.org/ns#" xmlns:rdf="http://www.w3.org/1999/02/22-rdf-syntax-ns#">
   <cc:Work>
    <dc:type rdf:resource="http://purl.org/dc/dcmitype/StillImage"/>
    <dc:date>2026-09-25T21:51:21.903413</dc:date>
    <dc:format>image/svg+xml</dc:format>
    <dc:creator>
     <cc:Agent>
      <dc:title>Matplotlib v3.8.4, https://matplotlib.org/</dc:title>
     </cc:Agent>
    </dc:creator>
   </cc:Work>
  </rdf:RDF>
 </metadata>
 <defs>
  <style type="text/css">*{stroke-linejoin: round; stroke-linecap: butt}</style>
 </defs>
 <g id="figure_1">
  <g id="patch_1">
   <path d="M 0 296.39952 
L 800.39952 296.39952 
L 800.39952 0 
L 0 0 
z
" style="fill: #ffffff"/>
  </g>
  <g id="axes_1">
   <g id="patch_2">
    <path d="M 51.165625 258.84327 
L 393.569447 258.84327 
L 393.569447 22.318125 
L 51.165625 22.318125 
z
" style="fill: #ffffff"/>
   </g>
   <g id="matplotlib.axis_1">
    <g id="xtick_1">
     <g id="line2d_1">
      <defs>
       <path id="m92bca80ba8" d="M 0 0 
L 0 3.5 
" style="stroke: #000000; stroke-width: 0.8"/>
      </defs>
      <g>
       <use xlink:href="#m92bca80ba8" x="56.688267" y="258.84327" style="stroke: #000000; stroke-width: 0.8"/>
      </g>
     </g>
     <g id="text_1">
      <!-- 0 -->
      <g transform="translate(53.507017 273.441707) scale(0.1 -0.1)">
       <defs>
        <path id="DejaVuSans-30" d="M 2034 4250 
Q 1547 4250 1301 3770 
Q 1056 3291 1056 2328 
Q 1056 1369 1301 889 
Q 1547 409 2034 409 
Q 2525 409 2770 889 
Q 3016 1369 3016 2328 
Q 3016 3291 2770 3770 
Q 2525 4250 2034 4250 
z
M 2034 4750 
Q 2819 4750 3233 4129 
Q 3647 3509 3647 2328 
Q 3647 1150 3233 529 
Q 2819 -91 2034 -91 
Q 1250 -91 836 529 
Q 422 1150 422 2328 
Q 422 3509 836 4129 
Q 1250 4750 2034 4750 
z
" transform="scale(0.015625)"/>
       </defs>
       <use xlink:href="#DejaVuSans-30"/>
      </g>
     </g>
    </g>
    <g id="xtick_2">
     <g id="line2d_2">
      <g>
       <use xlink:href="#m92bca80ba8" x="96.852939" y="258.84327" style="stroke: #000000; stroke-width: 0.8"/>
      </g>
     </g>
     <g id="text_2">
      <!-- 4 -->
      <g transform="translate(93.671689 273.441707) scale(0.1 -0.1)">
       <defs>
        <path id="DejaVuSans-34" d="M 2419 4116 
L 825 1625 
L 2419 1625 
L 2419 4116 
z
M 2253 4666 
L 3047 4666 
L 3047 1625 
L 3713 1625 
L 3713 1100 
L 3047 1100 
L 3047 0 
L 2419 0 
L 2419 1100 
L 313 1100 
L 313 1709 
L 2253 4666 
z
" transform="scale(0.015625)"/>
       </defs>
       <use xlink:href="#DejaVuSans-34"/>
      </g>
     </g>
    </g>
    <g id="xtick_3">
     <g id="line2d_3">
      <g>
       <use xlink:href="#m92bca80ba8" x="137.01761" y="258.84327" style="stroke: #000000; stroke-width: 0.8"/>
      </g>
     </g>
     <g id="text_3">
      <!-- 8 -->
      <g transform="translate(133.83636 273.441707) scale(0.1 -0.1)">
       <defs>
        <path id="DejaVuSans-38" d="M 2034 2216 
Q 1584 2216 1326 1975 
Q 1069 1734 1069 1313 
Q 1069 891 1326 650 
Q 1584 409 2034 409 
Q 2484 409 2743 651 
Q 3003 894 3003 1313 
Q 3003 1734 2745 1975 
Q 2488 2216 2034 2216 
z
M 1403 2484 
Q 997 2584 770 2862 
Q 544 3141 544 3541 
Q 544 4100 942 4425 
Q 1341 4750 2034 4750 
Q 2731 4750 3128 4425 
Q 3525 4100 3525 3541 
Q 3525 3141 3298 2862 
Q 3072 2584 2669 2484 
Q 3125 2378 3379 2068 
Q 3634 1759 3634 1313 
Q 3634 634 3220 271 
Q 2806 -91 2034 -91 
Q 1263 -91 848 271 
Q 434 634 434 1313 
Q 434 1759 690 2068 
Q 947 2378 1403 2484 
z
M 1172 3481 
Q 1172 3119 1398 2916 
Q 1625 2713 2034 2713 
Q 2441 2713 2670 2916 
Q 2900 3119 2900 3481 
Q 2900 3844 2670 4047 
Q 2441 4250 2034 4250 
Q 1625 4250 1398 4047 
Q 1172 3844 1172 3481 
z
" transform="scale(0.015625)"/>
       </defs>
       <use xlink:href="#DejaVuSans-38"/>
      </g>
     </g>
    </g>
    <g id="xtick_4">
     <g id="line2d_4">
      <g>
       <use xlink:href="#m92bca80ba8" x="177.182281" y="258.84327" style="stroke: #000000; stroke-width: 0.8"/>
      </g>
     </g>
     <g id="text_4">
      <!-- 12 -->
      <g transform="translate(170.819781 273.441707) scale(0.1 -0.1)">
       <defs>
        <path id="DejaVuSans-31" d="M 794 531 
L 1825 531 
L 1825 4091 
L 703 3866 
L 703 4441 
L 1819 4666 
L 2450 4666 
L 2450 531 
L 3481 531 
L 3481 0 
L 794 0 
L 794 531 
z
" transform="scale(0.015625)"/>
        <path id="DejaVuSans-32" d="M 1228 531 
L 3431 531 
L 3431 0 
L 469 0 
L 469 531 
Q 828 903 1448 1529 
Q 2069 2156 2228 2338 
Q 2531 2678 2651 2914 
Q 2772 3150 2772 3378 
Q 2772 3750 2511 3984 
Q 2250 4219 1831 4219 
Q 1534 4219 1204 4116 
Q 875 4013 500 3803 
L 500 4441 
Q 881 4594 1212 4672 
Q 1544 4750 1819 4750 
Q 2544 4750 2975 4387 
Q 3406 4025 3406 3419 
Q 3406 3131 3298 2873 
Q 3191 2616 2906 2266 
Q 2828 2175 2409 1742 
Q 1991 1309 1228 531 
z
" transform="scale(0.015625)"/>
       </defs>
       <use xlink:href="#DejaVuSans-31"/>
       <use xlink:href="#DejaVuSans-32" x="63.623047"/>
      </g>
     </g>
    </g>
    <g id="xtick_5">
     <g id="line2d_5">
      <g>
       <use xlink:href="#m92bca80ba8" x="217.346952" y="258.84327" style="stroke: #000000; stroke-width: 0.8"/>
      </g>
     </g>
     <g id="text_5">
      <!-- 16 -->
      <g transform="translate(210.984452 273.441707) scale(0.1 -0.1)">
       <defs>
        <path id="DejaVuSans-36" d="M 2113 2584 
Q 1688 2584 1439 2293 
Q 1191 2003 1191 1497 
Q 1191 994 1439 701 
Q 1688 409 2113 409 
Q 2538 409 2786 701 
Q 3034 994 3034 1497 
Q 3034 2003 2786 2293 
Q 2538 2584 2113 2584 
z
M 3366 4563 
L 3366 3988 
Q 3128 4100 2886 4159 
Q 2644 4219 2406 4219 
Q 1781 4219 1451 3797 
Q 1122 3375 1075 2522 
Q 1259 2794 1537 2939 
Q 1816 3084 2150 3084 
Q 2853 3084 3261 2657 
Q 3669 2231 3669 1497 
Q 3669 778 3244 343 
Q 2819 -91 2113 -91 
Q 1303 -91 875 529 
Q 447 1150 447 2328 
Q 447 3434 972 4092 
Q 1497 4750 2381 4750 
Q 2619 4750 2861 4703 
Q 3103 4656 3366 4563 
z
" transform="scale(0.015625)"/>
       </defs>
       <use xlink:href="#DejaVuSans-31"/>
       <use xlink:href="#DejaVuSans-36" x="63.623047"/>
      </g>
     </g>
    </g>
    <g id="xtick_6">
     <g id="line2d_6">
      <g>
       <use xlink:href="#m92bca80ba8" x="257.511624" y="258.84327" style="stroke: #000000; stroke-width: 0.8"/>
      </g>
     </g>
     <g id="text_6">
      <!-- 20 -->
      <g transform="translate(251.149124 273.441707) scale(0.1 -0.1)">
       <use xlink:href="#DejaVuSans-32"/>
       <use xlink:href="#DejaVuSans-30" x="63.623047"/>
      </g>
     </g>
    </g>
    <g id="xtick_7">
     <g id="line2d_7">
      <g>
       <use xlink:href="#m92bca80ba8" x="297.676295" y="258.84327" style="stroke: #000000; stroke-width: 0.8"/>
      </g>
     </g>
     <g id="text_7">
      <!-- 24 -->
      <g transform="translate(291.313795 273.441707) scale(0.1 -0.1)">
       <use xlink:href="#DejaVuSans-32"/>
       <use xlink:href="#DejaVuSans-34" x="63.623047"/>
      </g>
     </g>
    </g>
    <g id="xtick_8">
     <g id="line2d_8">
      <g>
       <use xlink:href="#m92bca80ba8" x="337.840966" y="258.84327" style="stroke: #000000; stroke-width: 0.8"/>
      </g>
     </g>
     <g id="text_8">
      <!-- 28 -->
      <g transform="translate(331.478466 273.441707) scale(0.1 -0.1)">
       <use xlink:href="#DejaVuSans-32"/>
       <use xlink:href="#DejaVuSans-38" x="63.623047"/>
      </g>
     </g>
    </g>
    <g id="xtick_9">
     <g id="line2d_9">
      <g>
       <use xlink:href="#m92bca80ba8" x="378.005637" y="258.84327" style="stroke: #000000; stroke-width: 0.8"/>
      </g>
     </g>
     <g id="text_9">
      <!-- 32 -->
      <g transform="translate(371.643137 273.441707) scale(0.1 -0.1)">
       <defs>
        <path id="DejaVuSans-33" d="M 2597 2516 
Q 3050 2419 3304 2112 
Q 3559 1806 3559 1356 
Q 3559 666 3084 287 
Q 2609 -91 1734 -91 
Q 1441 -91 1130 -33 
Q 819 25 488 141 
L 488 750 
Q 750 597 1062 519 
Q 1375 441 1716 441 
Q 2309 441 2620 675 
Q 2931 909 2931 1356 
Q 2931 1769 2642 2001 
Q 2353 2234 1838 2234 
L 1294 2234 
L 1294 2753 
L 1863 2753 
Q 2328 2753 2575 2939 
Q 2822 3125 2822 3475 
Q 2822 3834 2567 4026 
Q 2313 4219 1838 4219 
Q 1578 4219 1281 4162 
Q 984 4106 628 3988 
L 628 4550 
Q 988 4650 1302 4700 
Q 1616 4750 1894 4750 
Q 2613 4750 3031 4423 
Q 3450 4097 3450 3541 
Q 3450 3153 3228 2886 
Q 3006 2619 2597 2516 
z
" transform="scale(0.015625)"/>
       </defs>
       <use xlink:href="#DejaVuSans-33"/>
       <use xlink:href="#DejaVuSans-32" x="63.623047"/>
      </g>
     </g>
    </g>
    <g id="text_10">
     <!-- Eigenvalue index j (1-based) -->
     <g transform="translate(150.924567 287.119832) scale(0.1 -0.1)">
      <defs>
       <path id="DejaVuSans-45" d="M 628 4666 
L 3578 4666 
L 3578 4134 
L 1259 4134 
L 1259 2753 
L 3481 2753 
L 3481 2222 
L 1259 2222 
L 1259 531 
L 3634 531 
L 3634 0 
L 628 0 
L 628 4666 
z
" transform="scale(0.015625)"/>
       <path id="DejaVuSans-69" d="M 603 3500 
L 1178 3500 
L 1178 0 
L 603 0 
L 603 3500 
z
M 603 4863 
L 1178 4863 
L 1178 4134 
L 603 4134 
L 603 4863 
z
" transform="scale(0.015625)"/>
       <path id="DejaVuSans-67" d="M 2906 1791 
Q 2906 2416 2648 2759 
Q 2391 3103 1925 3103 
Q 1463 3103 1205 2759 
Q 947 2416 947 1791 
Q 947 1169 1205 825 
Q 1463 481 1925 481 
Q 2391 481 2648 825 
Q 2906 1169 2906 1791 
z
M 3481 434 
Q 3481 -459 3084 -895 
Q 2688 -1331 1869 -1331 
Q 1566 -1331 1297 -1286 
Q 1028 -1241 775 -1147 
L 775 -588 
Q 1028 -725 1275 -790 
Q 1522 -856 1778 -856 
Q 2344 -856 2625 -561 
Q 2906 -266 2906 331 
L 2906 616 
Q 2728 306 2450 153 
Q 2172 0 1784 0 
Q 1141 0 747 490 
Q 353 981 353 1791 
Q 353 2603 747 3093 
Q 1141 3584 1784 3584 
Q 2172 3584 2450 3431 
Q 2728 3278 2906 2969 
L 2906 3500 
L 3481 3500 
L 3481 434 
z
" transform="scale(0.015625)"/>
       <path id="DejaVuSans-65" d="M 3597 1894 
L 3597 1613 
L 953 1613 
Q 991 1019 1311 708 
Q 1631 397 2203 397 
Q 2534 397 2845 478 
Q 3156 559 3463 722 
L 3463 178 
Q 3153 47 2828 -22 
Q 2503 -91 2169 -91 
Q 1331 -91 842 396 
Q 353 884 353 1716 
Q 353 2575 817 3079 
Q 1281 3584 2069 3584 
Q 2775 3584 3186 3129 
Q 3597 2675 3597 1894 
z
M 3022 2063 
Q 3016 2534 2758 2815 
Q 2500 3097 2075 3097 
Q 1594 3097 1305 2825 
Q 1016 2553 972 2059 
L 3022 2063 
z
" transform="scale(0.015625)"/>
       <path id="DejaVuSans-6e" d="M 3513 2113 
L 3513 0 
L 2938 0 
L 2938 2094 
Q 2938 2591 2744 2837 
Q 2550 3084 2163 3084 
Q 1697 3084 1428 2787 
Q 1159 2491 1159 1978 
L 1159 0 
L 581 0 
L 581 3500 
L 1159 3500 
L 1159 2956 
Q 1366 3272 1645 3428 
Q 1925 3584 2291 3584 
Q 2894 3584 3203 3211 
Q 3513 2838 3513 2113 
z
" transform="scale(0.015625)"/>
       <path id="DejaVuSans-76" d="M 191 3500 
L 800 3500 
L 1894 563 
L 2988 3500 
L 3597 3500 
L 2284 0 
L 1503 0 
L 191 3500 
z
" transform="scale(0.015625)"/>
       <path id="DejaVuSans-61" d="M 2194 1759 
Q 1497 1759 1228 1600 
Q 959 1441 959 1056 
Q 959 750 1161 570 
Q 1363 391 1709 391 
Q 2188 391 2477 730 
Q 2766 1069 2766 1631 
L 2766 1759 
L 2194 1759 
z
M 3341 1997 
L 3341 0 
L 2766 0 
L 2766 531 
Q 2569 213 2275 61 
Q 1981 -91 1556 -91 
Q 1019 -91 701 211 
Q 384 513 384 1019 
Q 384 1609 779 1909 
Q 1175 2209 1959 2209 
L 2766 2209 
L 2766 2266 
Q 2766 2663 2505 2880 
Q 2244 3097 1772 3097 
Q 1472 3097 1187 3025 
Q 903 2953 641 2809 
L 641 3341 
Q 956 3463 1253 3523 
Q 1550 3584 1831 3584 
Q 2591 3584 2966 3190 
Q 3341 2797 3341 1997 
z
" transform="scale(0.015625)"/>
       <path id="DejaVuSans-6c" d="M 603 4863 
L 1178 4863 
L 1178 0 
L 603 0 
L 603 4863 
z
" transform="scale(0.015625)"/>
       <path id="DejaVuSans-75" d="M 544 1381 
L 544 3500 
L 1119 3500 
L 1119 1403 
Q 1119 906 1312 657 
Q 1506 409 1894 409 
Q 2359 409 2629 706 
Q 2900 1003 2900 1516 
L 2900 3500 
L 3475 3500 
L 3475 0 
L 2900 0 
L 2900 538 
Q 2691 219 2414 64 
Q 2138 -91 1772 -91 
Q 1169 -91 856 284 
Q 544 659 544 1381 
z
M 1991 3584 
L 1991 3584 
z
" transform="scale(0.015625)"/>
       <path id="DejaVuSans-20" transform="scale(0.015625)"/>
       <path id="DejaVuSans-64" d="M 2906 2969 
L 2906 4863 
L 3481 4863 
L 3481 0 
L 2906 0 
L 2906 525 
Q 2725 213 2448 61 
Q 2172 -91 1784 -91 
Q 1150 -91 751 415 
Q 353 922 353 1747 
Q 353 2572 751 3078 
Q 1150 3584 1784 3584 
Q 2172 3584 2448 3432 
Q 2725 3281 2906 2969 
z
M 947 1747 
Q 947 1113 1208 752 
Q 1469 391 1925 391 
Q 2381 391 2643 752 
Q 2906 1113 2906 1747 
Q 2906 2381 2643 2742 
Q 2381 3103 1925 3103 
Q 1469 3103 1208 2742 
Q 947 2381 947 1747 
z
" transform="scale(0.015625)"/>
       <path id="DejaVuSans-78" d="M 3513 3500 
L 2247 1797 
L 3578 0 
L 2900 0 
L 1881 1375 
L 863 0 
L 184 0 
L 1544 1831 
L 300 3500 
L 978 3500 
L 1906 2253 
L 2834 3500 
L 3513 3500 
z
" transform="scale(0.015625)"/>
       <path id="DejaVuSans-6a" d="M 603 3500 
L 1178 3500 
L 1178 -63 
Q 1178 -731 923 -1031 
Q 669 -1331 103 -1331 
L -116 -1331 
L -116 -844 
L 38 -844 
Q 366 -844 484 -692 
Q 603 -541 603 -63 
L 603 3500 
z
M 603 4863 
L 1178 4863 
L 1178 4134 
L 603 4134 
L 603 4863 
z
" transform="scale(0.015625)"/>
       <path id="DejaVuSans-28" d="M 1984 4856 
Q 1566 4138 1362 3434 
Q 1159 2731 1159 2009 
Q 1159 1288 1364 580 
Q 1569 -128 1984 -844 
L 1484 -844 
Q 1016 -109 783 600 
Q 550 1309 550 2009 
Q 550 2706 781 3412 
Q 1013 4119 1484 4856 
L 1984 4856 
z
" transform="scale(0.015625)"/>
       <path id="DejaVuSans-2d" d="M 313 2009 
L 1997 2009 
L 1997 1497 
L 313 1497 
L 313 2009 
z
" transform="scale(0.015625)"/>
       <path id="DejaVuSans-62" d="M 3116 1747 
Q 3116 2381 2855 2742 
Q 2594 3103 2138 3103 
Q 1681 3103 1420 2742 
Q 1159 2381 1159 1747 
Q 1159 1113 1420 752 
Q 1681 391 2138 391 
Q 2594 391 2855 752 
Q 3116 1113 3116 1747 
z
M 1159 2969 
Q 1341 3281 1617 3432 
Q 1894 3584 2278 3584 
Q 2916 3584 3314 3078 
Q 3713 2572 3713 1747 
Q 3713 922 3314 415 
Q 2916 -91 2278 -91 
Q 1894 -91 1617 61 
Q 1341 213 1159 525 
L 1159 0 
L 581 0 
L 581 4863 
L 1159 4863 
L 1159 2969 
z
" transform="scale(0.015625)"/>
       <path id="DejaVuSans-73" d="M 2834 3397 
L 2834 2853 
Q 2591 2978 2328 3040 
Q 2066 3103 1784 3103 
Q 1356 3103 1142 2972 
Q 928 2841 928 2578 
Q 928 2378 1081 2264 
Q 1234 2150 1697 2047 
L 1894 2003 
Q 2506 1872 2764 1633 
Q 3022 1394 3022 966 
Q 3022 478 2636 193 
Q 2250 -91 1575 -91 
Q 1294 -91 989 -36 
Q 684 19 347 128 
L 347 722 
Q 666 556 975 473 
Q 1284 391 1588 391 
Q 1994 391 2212 530 
Q 2431 669 2431 922 
Q 2431 1156 2273 1281 
Q 2116 1406 1581 1522 
L 1381 1569 
Q 847 1681 609 1914 
Q 372 2147 372 2553 
Q 372 3047 722 3315 
Q 1072 3584 1716 3584 
Q 2034 3584 2315 3537 
Q 2597 3491 2834 3397 
z
" transform="scale(0.015625)"/>
       <path id="DejaVuSans-29" d="M 513 4856 
L 1013 4856 
Q 1481 4119 1714 3412 
Q 1947 2706 1947 2009 
Q 1947 1309 1714 600 
Q 1481 -109 1013 -844 
L 513 -844 
Q 928 -128 1133 580 
Q 1338 1288 1338 2009 
Q 1338 2731 1133 3434 
Q 928 4138 513 4856 
z
" transform="scale(0.015625)"/>
      </defs>
      <use xlink:href="#DejaVuSans-45"/>
      <use xlink:href="#DejaVuSans-69" x="63.183594"/>
      <use xlink:href="#DejaVuSans-67" x="90.966797"/>
      <use xlink:href="#DejaVuSans-65" x="154.443359"/>
      <use xlink:href="#DejaVuSans-6e" x="215.966797"/>
      <use xlink:href="#DejaVuSans-76" x="279.345703"/>
      <use xlink:href="#DejaVuSans-61" x="338.525391"/>
      <use xlink:href="#DejaVuSans-6c" x="399.804688"/>
      <use xlink:href="#DejaVuSans-75" x="427.587891"/>
      <use xlink:href="#DejaVuSans-65" x="490.966797"/>
      <use xlink:href="#DejaVuSans-20" x="552.490234"/>
      <use xlink:href="#DejaVuSans-69" x="584.277344"/>
      <use xlink:href="#DejaVuSans-6e" x="612.060547"/>
      <use xlink:href="#DejaVuSans-64" x="675.439453"/>
      <use xlink:href="#DejaVuSans-65" x="738.916016"/>
      <use xlink:href="#DejaVuSans-78" x="798.689453"/>
      <use xlink:href="#DejaVuSans-20" x="857.869141"/>
      <use xlink:href="#DejaVuSans-6a" x="889.65625"/>
      <use xlink:href="#DejaVuSans-20" x="917.439453"/>
      <use xlink:href="#DejaVuSans-28" x="949.226562"/>
      <use xlink:href="#DejaVuSans-31" x="988.240234"/>
      <use xlink:href="#DejaVuSans-2d" x="1051.863281"/>
      <use xlink:href="#DejaVuSans-62" x="1087.947266"/>
      <use xlink:href="#DejaVuSans-61" x="1151.423828"/>
      <use xlink:href="#DejaVuSans-73" x="1212.703125"/>
      <use xlink:href="#DejaVuSans-65" x="1264.802734"/>
      <use xlink:href="#DejaVuSans-64" x="1326.326172"/>
      <use xlink:href="#DejaVuSans-29" x="1389.802734"/>
     </g>
    </g>
   </g>
   <g id="matplotlib.axis_2">
    <g id="ytick_1">
     <g id="line2d_10">
      <path d="M 51.165625 248.092127 
L 393.569447 248.092127 
" clip-path="url(#p829476ed5d)" style="fill: none; stroke: #b0b0b0; stroke-opacity: 0.2; stroke-width: 0.8; stroke-linecap: square"/>
     </g>
     <g id="line2d_11">
      <defs>
       <path id="med7ae17ad9" d="M 0 0 
L -3.5 0 
" style="stroke: #000000; stroke-width: 0.8"/>
      </defs>
      <g>
       <use xlink:href="#med7ae17ad9" x="51.165625" y="248.092127" style="stroke: #000000; stroke-width: 0.8"/>
      </g>
     </g>
     <g id="text_11">
      <!-- 0.00 -->
      <g transform="translate(21.9 251.891346) scale(0.1 -0.1)">
       <defs>
        <path id="DejaVuSans-2e" d="M 684 794 
L 1344 794 
L 1344 0 
L 684 0 
L 684 794 
z
" transform="scale(0.015625)"/>
       </defs>
       <use xlink:href="#DejaVuSans-30"/>
       <use xlink:href="#DejaVuSans-2e" x="63.623047"/>
       <use xlink:href="#DejaVuSans-30" x="95.410156"/>
       <use xlink:href="#DejaVuSans-30" x="159.033203"/>
      </g>
     </g>
    </g>
    <g id="ytick_2">
     <g id="line2d_12">
      <path d="M 51.165625 219.751336 
L 393.569447 219.751336 
" clip-path="url(#p829476ed5d)" style="fill: none; stroke: #b0b0b0; stroke-opacity: 0.2; stroke-width: 0.8; stroke-linecap: square"/>
     </g>
     <g id="line2d_13">
      <g>
       <use xlink:href="#med7ae17ad9" x="51.165625" y="219.751336" style="stroke: #000000; stroke-width: 0.8"/>
      </g>
     </g>
     <g id="text_12">
      <!-- 0.01 -->
      <g transform="translate(21.9 223.550555) scale(0.1 -0.1)">
       <use xlink:href="#DejaVuSans-30"/>
       <use xlink:href="#DejaVuSans-2e" x="63.623047"/>
       <use xlink:href="#DejaVuSans-30" x="95.410156"/>
       <use xlink:href="#DejaVuSans-31" x="159.033203"/>
      </g>
     </g>
    </g>
    <g id="ytick_3">
     <g id="line2d_14">
      <path d="M 51.165625 191.410545 
L 393.569447 191.410545 
" clip-path="url(#p829476ed5d)" style="fill: none; stroke: #b0b0b0; stroke-opacity: 0.2; stroke-width: 0.8; stroke-linecap: square"/>
     </g>
     <g id="line2d_15">
      <g>
       <use xlink:href="#med7ae17ad9" x="51.165625" y="191.410545" style="stroke: #000000; stroke-width: 0.8"/>
      </g>
     </g>
     <g id="text_13">
      <!-- 0.02 -->
      <g transform="translate(21.9 195.209764) scale(0.1 -0.1)">
       <use xlink:href="#DejaVuSans-30"/>
       <use xlink:href="#DejaVuSans-2e" x="63.623047"/>
       <use xlink:href="#DejaVuSans-30" x="95.410156"/>
       <use xlink:href="#DejaVuSans-32" x="159.033203"/>
      </g>
     </g>
    </g>
    <g id="ytick_4">
     <g id="line2d_16">
      <path d="M 51.165625 163.069754 
L 393.569447 163.069754 
" clip-path="url(#p829476ed5d)" style="fill: none; stroke: #b0b0b0; stroke-opacity: 0.2; stroke-width: 0.8; stroke-linecap: square"/>
     </g>
     <g id="line2d_17">
      <g>
       <use xlink:href="#med7ae17ad9" x="51.165625" y="163.069754" style="stroke: #000000; stroke-width: 0.8"/>
      </g>
     </g>
     <g id="text_14">
      <!-- 0.03 -->
      <g transform="translate(21.9 166.868973) scale(0.1 -0.1)">
       <use xlink:href="#DejaVuSans-30"/>
       <use xlink:href="#DejaVuSans-2e" x="63.623047"/>
       <use xlink:href="#DejaVuSans-30" x="95.410156"/>
       <use xlink:href="#DejaVuSans-33" x="159.033203"/>
      </g>
     </g>
    </g>
    <g id="ytick_5">
     <g id="line2d_18">
      <path d="M 51.165625 134.728964 
L 393.569447 134.728964 
" clip-path="url(#p829476ed5d)" style="fill: none; stroke: #b0b0b0; stroke-opacity: 0.2; stroke-width: 0.8; stroke-linecap: square"/>
     </g>
     <g id="line2d_19">
      <g>
       <use xlink:href="#med7ae17ad9" x="51.165625" y="134.728964" style="stroke: #000000; stroke-width: 0.8"/>
      </g>
     </g>
     <g id="text_15">
      <!-- 0.04 -->
      <g transform="translate(21.9 138.528182) scale(0.1 -0.1)">
       <use xlink:href="#DejaVuSans-30"/>
       <use xlink:href="#DejaVuSans-2e" x="63.623047"/>
       <use xlink:href="#DejaVuSans-30" x="95.410156"/>
       <use xlink:href="#DejaVuSans-34" x="159.033203"/>
      </g>
     </g>
    </g>
    <g id="ytick_6">
     <g id="line2d_20">
      <path d="M 51.165625 106.388173 
L 393.569447 106.388173 
" clip-path="url(#p829476ed5d)" style="fill: none; stroke: #b0b0b0; stroke-opacity: 0.2; stroke-width: 0.8; stroke-linecap: square"/>
     </g>
     <g id="line2d_21">
      <g>
       <use xlink:href="#med7ae17ad9" x="51.165625" y="106.388173" style="stroke: #000000; stroke-width: 0.8"/>
      </g>
     </g>
     <g id="text_16">
      <!-- 0.05 -->
      <g transform="translate(21.9 110.187391) scale(0.1 -0.1)">
       <defs>
        <path id="DejaVuSans-35" d="M 691 4666 
L 3169 4666 
L 3169 4134 
L 1269 4134 
L 1269 2991 
Q 1406 3038 1543 3061 
Q 1681 3084 1819 3084 
Q 2600 3084 3056 2656 
Q 3513 2228 3513 1497 
Q 3513 744 3044 326 
Q 2575 -91 1722 -91 
Q 1428 -91 1123 -41 
Q 819 9 494 109 
L 494 744 
Q 775 591 1075 516 
Q 1375 441 1709 441 
Q 2250 441 2565 725 
Q 2881 1009 2881 1497 
Q 2881 1984 2565 2268 
Q 2250 2553 1709 2553 
Q 1456 2553 1204 2497 
Q 953 2441 691 2322 
L 691 4666 
z
" transform="scale(0.015625)"/>
       </defs>
       <use xlink:href="#DejaVuSans-30"/>
       <use xlink:href="#DejaVuSans-2e" x="63.623047"/>
       <use xlink:href="#DejaVuSans-30" x="95.410156"/>
       <use xlink:href="#DejaVuSans-35" x="159.033203"/>
      </g>
     </g>
    </g>
    <g id="ytick_7">
     <g id="line2d_22">
      <path d="M 51.165625 78.047382 
L 393.569447 78.047382 
" clip-path="url(#p829476ed5d)" style="fill: none; stroke: #b0b0b0; stroke-opacity: 0.2; stroke-width: 0.8; stroke-linecap: square"/>
     </g>
     <g id="line2d_23">
      <g>
       <use xlink:href="#med7ae17ad9" x="51.165625" y="78.047382" style="stroke: #000000; stroke-width: 0.8"/>
      </g>
     </g>
     <g id="text_17">
      <!-- 0.06 -->
      <g transform="translate(21.9 81.846601) scale(0.1 -0.1)">
       <use xlink:href="#DejaVuSans-30"/>
       <use xlink:href="#DejaVuSans-2e" x="63.623047"/>
       <use xlink:href="#DejaVuSans-30" x="95.410156"/>
       <use xlink:href="#DejaVuSans-36" x="159.033203"/>
      </g>
     </g>
    </g>
    <g id="ytick_8">
     <g id="line2d_24">
      <path d="M 51.165625 49.706591 
L 393.569447 49.706591 
" clip-path="url(#p829476ed5d)" style="fill: none; stroke: #b0b0b0; stroke-opacity: 0.2; stroke-width: 0.8; stroke-linecap: square"/>
     </g>
     <g id="line2d_25">
      <g>
       <use xlink:href="#med7ae17ad9" x="51.165625" y="49.706591" style="stroke: #000000; stroke-width: 0.8"/>
      </g>
     </g>
     <g id="text_18">
      <!-- 0.07 -->
      <g transform="translate(21.9 53.50581) scale(0.1 -0.1)">
       <defs>
        <path id="DejaVuSans-37" d="M 525 4666 
L 3525 4666 
L 3525 4397 
L 1831 0 
L 1172 0 
L 2766 4134 
L 525 4134 
L 525 4666 
z
" transform="scale(0.015625)"/>
       </defs>
       <use xlink:href="#DejaVuSans-30"/>
       <use xlink:href="#DejaVuSans-2e" x="63.623047"/>
       <use xlink:href="#DejaVuSans-30" x="95.410156"/>
       <use xlink:href="#DejaVuSans-37" x="159.033203"/>
      </g>
     </g>
    </g>
    <g id="text_19">
     <!-- $\lambda_j$ -->
     <g transform="translate(14.8 144.680697) rotate(-90) scale(0.1 -0.1)">
      <defs>
       <path id="DejaVuSans-Oblique-3bb" d="M 2350 4316 
L 3125 0 
L 2516 0 
L 2038 2588 
L 328 0 
L -281 0 
L 1903 3356 
L 1794 3975 
Q 1725 4369 1391 4369 
L 1091 4369 
L 1184 4863 
L 1550 4856 
Q 2253 4847 2350 4316 
z
" transform="scale(0.015625)"/>
       <path id="DejaVuSans-Oblique-6a" d="M 928 3500 
L 1503 3500 
L 813 -63 
L 809 -78 
Q 694 -675 544 -897 
Q 403 -1106 132 -1218 
Q -138 -1331 -506 -1331 
L -722 -1331 
L -628 -844 
L -481 -844 
Q -144 -844 -1 -703 
Q 141 -563 238 -63 
L 928 3500 
z
M 1197 4863 
L 1772 4863 
L 1631 4134 
L 1056 4134 
L 1197 4863 
z
" transform="scale(0.015625)"/>
      </defs>
      <use xlink:href="#DejaVuSans-Oblique-3bb" transform="translate(0 0.015625)"/>
      <use xlink:href="#DejaVuSans-Oblique-6a" transform="translate(59.179688 -16.390625) scale(0.7)"/>
     </g>
    </g>
   </g>
   <g id="line2d_26">
    <path d="M 66.729435 248.092127 
L 76.770603 196.597162 
L 86.811771 178.391683 
L 96.852939 167.22524 
L 106.894106 164.382192 
L 116.935274 161.265218 
L 126.976442 147.84588 
L 137.01761 133.013019 
L 147.058778 128.35356 
L 157.099945 123.29667 
L 167.141113 120.77429 
L 177.182281 111.887256 
L 187.223449 109.185245 
L 197.264617 105.080565 
L 207.305785 100.111904 
L 217.346952 94.665869 
L 227.38812 90.022739 
L 237.429288 87.240585 
L 247.470456 79.464471 
L 257.511624 75.655569 
L 267.552791 71.180651 
L 277.593959 66.100913 
L 287.635127 63.745018 
L 297.676295 60.745704 
L 307.717463 54.350085 
L 317.75863 48.920165 
L 327.799798 48.472436 
L 337.840966 42.861459 
L 347.882134 42.214127 
L 357.923302 39.430969 
L 367.96447 37.043176 
L 378.005637 33.069268 
" clip-path="url(#p829476ed5d)" style="fill: none; stroke: #1f77b4; stroke-width: 1.5; stroke-linecap: square"/>
    <defs>
     <path id="m17ae074578" d="M 0 2 
C 0.530406 2 1.03916 1.789267 1.414214 1.414214 
C 1.789267 1.03916 2 0.530406 2 0 
C 2 -0.530406 1.789267 -1.03916 1.414214 -1.414214 
C 1.03916 -1.789267 0.530406 -2 0 -2 
C -0.530406 -2 -1.03916 -1.789267 -1.414214 -1.414214 
C -1.789267 -1.03916 -2 -0.530406 -2 0 
C -2 0.530406 -1.789267 1.03916 -1.414214 1.414214 
C -1.03916 1.789267 -0.530406 2 0 2 
z
" style="stroke: #1f77b4"/>
    </defs>
    <g clip-path="url(#p829476ed5d)">
     <use xlink:href="#m17ae074578" x="66.729435" y="248.092127" style="fill: #1f77b4; stroke: #1f77b4"/>
     <use xlink:href="#m17ae074578" x="76.770603" y="196.597162" style="fill: #1f77b4; stroke: #1f77b4"/>
     <use xlink:href="#m17ae074578" x="86.811771" y="178.391683" style="fill: #1f77b4; stroke: #1f77b4"/>
     <use xlink:href="#m17ae074578" x="96.852939" y="167.22524" style="fill: #1f77b4; stroke: #1f77b4"/>
     <use xlink:href="#m17ae074578" x="106.894106" y="164.382192" style="fill: #1f77b4; stroke: #1f77b4"/>
     <use xlink:href="#m17ae074578" x="116.935274" y="161.265218" style="fill: #1f77b4; stroke: #1f77b4"/>
     <use xlink:href="#m17ae074578" x="126.976442" y="147.84588" style="fill: #1f77b4; stroke: #1f77b4"/>
     <use xlink:href="#m17ae074578" x="137.01761" y="133.013019" style="fill: #1f77b4; stroke: #1f77b4"/>
     <use xlink:href="#m17ae074578" x="147.058778" y="128.35356" style="fill: #1f77b4; stroke: #1f77b4"/>
     <use xlink:href="#m17ae074578" x="157.099945" y="123.29667" style="fill: #1f77b4; stroke: #1f77b4"/>
     <use xlink:href="#m17ae074578" x="167.141113" y="120.77429" style="fill: #1f77b4; stroke: #1f77b4"/>
     <use xlink:href="#m17ae074578" x="177.182281" y="111.887256" style="fill: #1f77b4; stroke: #1f77b4"/>
     <use xlink:href="#m17ae074578" x="187.223449" y="109.185245" style="fill: #1f77b4; stroke: #1f77b4"/>
     <use xlink:href="#m17ae074578" x="197.264617" y="105.080565" style="fill: #1f77b4; stroke: #1f77b4"/>
     <use xlink:href="#m17ae074578" x="207.305785" y="100.111904" style="fill: #1f77b4; stroke: #1f77b4"/>
     <use xlink:href="#m17ae074578" x="217.346952" y="94.665869" style="fill: #1f77b4; stroke: #1f77b4"/>
     <use xlink:href="#m17ae074578" x="227.38812" y="90.022739" style="fill: #1f77b4; stroke: #1f77b4"/>
     <use xlink:href="#m17ae074578" x="237.429288" y="87.240585" style="fill: #1f77b4; stroke: #1f77b4"/>
     <use xlink:href="#m17ae074578" x="247.470456" y="79.464471" style="fill: #1f77b4; stroke: #1f77b4"/>
     <use xlink:href="#m17ae074578" x="257.511624" y="75.655569" style="fill: #1f77b4; stroke: #1f77b4"/>
     <use xlink:href="#m17ae074578" x="267.552791" y="71.180651" style="fill: #1f77b4; stroke: #1f77b4"/>
     <use xlink:href="#m17ae074578" x="277.593959" y="66.100913" style="fill: #1f77b4; stroke: #1f77b4"/>
     <use xlink:href="#m17ae074578" x="287.635127" y="63.745018" style="fill: #1f77b4; stroke: #1f77b4"/>
     <use xlink:href="#m17ae074578" x="297.676295" y="60.745704" style="fill: #1f77b4; stroke: #1f77b4"/>
     <use xlink:href="#m17ae074578" x="307.717463" y="54.350085" style="fill: #1f77b4; stroke: #1f77b4"/>
     <use xlink:href="#m17ae074578" x="317.75863" y="48.920165" style="fill: #1f77b4; stroke: #1f77b4"/>
     <use xlink:href="#m17ae074578" x="327.799798" y="48.472436" style="fill: #1f77b4; stroke: #1f77b4"/>
     <use xlink:href="#m17ae074578" x="337.840966" y="42.861459" style="fill: #1f77b4; stroke: #1f77b4"/>
     <use xlink:href="#m17ae074578" x="347.882134" y="42.214127" style="fill: #1f77b4; stroke: #1f77b4"/>
     <use xlink:href="#m17ae074578" x="357.923302" y="39.430969" style="fill: #1f77b4; stroke: #1f77b4"/>
     <use xlink:href="#m17ae074578" x="367.96447" y="37.043176" style="fill: #1f77b4; stroke: #1f77b4"/>
     <use xlink:href="#m17ae074578" x="378.005637" y="33.069268" style="fill: #1f77b4; stroke: #1f77b4"/>
    </g>
   </g>
   <g id="patch_3">
    <path d="M 51.165625 258.84327 
L 51.165625 22.318125 
" style="fill: none; stroke: #000000; stroke-width: 0.8; stroke-linejoin: miter; stroke-linecap: square"/>
   </g>
   <g id="patch_4">
    <path d="M 51.165625 258.84327 
L 393.569447 258.84327 
" style="fill: none; stroke: #000000; stroke-width: 0.8; stroke-linejoin: miter; stroke-linecap: square"/>
   </g>
   <g id="text_20">
    <!-- 32 smallest eigenvalues -->
    <g transform="translate(149.591286 16.318125) scale(0.12 -0.12)">
     <defs>
      <path id="DejaVuSans-6d" d="M 3328 2828 
Q 3544 3216 3844 3400 
Q 4144 3584 4550 3584 
Q 5097 3584 5394 3201 
Q 5691 2819 5691 2113 
L 5691 0 
L 5113 0 
L 5113 2094 
Q 5113 2597 4934 2840 
Q 4756 3084 4391 3084 
Q 3944 3084 3684 2787 
Q 3425 2491 3425 1978 
L 3425 0 
L 2847 0 
L 2847 2094 
Q 2847 2600 2669 2842 
Q 2491 3084 2119 3084 
Q 1678 3084 1418 2786 
Q 1159 2488 1159 1978 
L 1159 0 
L 581 0 
L 581 3500 
L 1159 3500 
L 1159 2956 
Q 1356 3278 1631 3431 
Q 1906 3584 2284 3584 
Q 2666 3584 2933 3390 
Q 3200 3197 3328 2828 
z
" transform="scale(0.015625)"/>
      <path id="DejaVuSans-74" d="M 1172 4494 
L 1172 3500 
L 2356 3500 
L 2356 3053 
L 1172 3053 
L 1172 1153 
Q 1172 725 1289 603 
Q 1406 481 1766 481 
L 2356 481 
L 2356 0 
L 1766 0 
Q 1100 0 847 248 
Q 594 497 594 1153 
L 594 3053 
L 172 3053 
L 172 3500 
L 594 3500 
L 594 4494 
L 1172 4494 
z
" transform="scale(0.015625)"/>
     </defs>
     <use xlink:href="#DejaVuSans-33"/>
     <use xlink:href="#DejaVuSans-32" x="63.623047"/>
     <use xlink:href="#DejaVuSans-20" x="127.246094"/>
     <use xlink:href="#DejaVuSans-73" x="159.033203"/>
     <use xlink:href="#DejaVuSans-6d" x="211.132812"/>
     <use xlink:href="#DejaVuSans-61" x="308.544922"/>
     <use xlink:href="#DejaVuSans-6c" x="369.824219"/>
     <use xlink:href="#DejaVuSans-6c" x="397.607422"/>
     <use xlink:href="#DejaVuSans-65" x="425.390625"/>
     <use xlink:href="#DejaVuSans-73" x="486.914062"/>
     <use xlink:href="#DejaVuSans-74" x="539.013672"/>
     <use xlink:href="#DejaVuSans-20" x="578.222656"/>
     <use xlink:href="#DejaVuSans-65" x="610.009766"/>
     <use xlink:href="#DejaVuSans-69" x="671.533203"/>
     <use xlink:href="#DejaVuSans-67" x="699.316406"/>
     <use xlink:href="#DejaVuSans-65" x="762.792969"/>
     <use xlink:href="#DejaVuSans-6e" x="824.316406"/>
     <use xlink:href="#DejaVuSans-76" x="887.695312"/>
     <use xlink:href="#DejaVuSans-61" x="946.875"/>
     <use xlink:href="#DejaVuSans-6c" x="1008.154297"/>
     <use xlink:href="#DejaVuSans-75" x="1035.9375"/>
     <use xlink:href="#DejaVuSans-65" x="1099.316406"/>
     <use xlink:href="#DejaVuSans-73" x="1160.839844"/>
    </g>
   </g>
   <g id="PathCollection_1">
    <defs>
     <path id="m5d7c327960" d="M 0 3.872983 
C 1.027127 3.872983 2.012324 3.464901 2.738613 2.738613 
C 3.464901 2.012324 3.872983 1.027127 3.872983 0 
C 3.872983 -1.027127 3.464901 -2.012324 2.738613 -2.738613 
C 2.012324 -3.464901 1.027127 -3.872983 0 -3.872983 
C -1.027127 -3.872983 -2.012324 -3.464901 -2.738613 -2.738613 
C -3.464901 -2.012324 -3.872983 -1.027127 -3.872983 0 
C -3.872983 1.027127 -3.464901 2.012324 -2.738613 2.738613 
C -2.012324 3.464901 -1.027127 3.872983 0 3.872983 
z
" style="stroke: #d97932"/>
    </defs>
    <g clip-path="url(#p829476ed5d)">
     <use xlink:href="#m5d7c327960" x="76.770603" y="196.597162" style="fill: #d97932; stroke: #d97932"/>
    </g>
   </g>
   <g id="legend_1">
    <g id="patch_5">
     <path d="M 58.165625 44.99625 
L 147.365625 44.99625 
Q 149.365625 44.99625 149.365625 42.99625 
L 149.365625 29.318125 
Q 149.365625 27.318125 147.365625 27.318125 
L 58.165625 27.318125 
Q 56.165625 27.318125 56.165625 29.318125 
L 56.165625 42.99625 
Q 56.165625 44.99625 58.165625 44.99625 
z
" style="fill: #ffffff; opacity: 0.8; stroke: #cccccc; stroke-linejoin: miter"/>
    </g>
    <g id="PathCollection_2">
     <g>
      <use xlink:href="#m5d7c327960" x="70.165625" y="36.291562" style="fill: #d97932; stroke: #d97932"/>
     </g>
    </g>
    <g id="text_21">
     <!-- Selected $\lambda_2$ -->
     <g transform="translate(88.165625 38.916562) scale(0.1 -0.1)">
      <defs>
       <path id="DejaVuSans-53" d="M 3425 4513 
L 3425 3897 
Q 3066 4069 2747 4153 
Q 2428 4238 2131 4238 
Q 1616 4238 1336 4038 
Q 1056 3838 1056 3469 
Q 1056 3159 1242 3001 
Q 1428 2844 1947 2747 
L 2328 2669 
Q 3034 2534 3370 2195 
Q 3706 1856 3706 1288 
Q 3706 609 3251 259 
Q 2797 -91 1919 -91 
Q 1588 -91 1214 -16 
Q 841 59 441 206 
L 441 856 
Q 825 641 1194 531 
Q 1563 422 1919 422 
Q 2459 422 2753 634 
Q 3047 847 3047 1241 
Q 3047 1584 2836 1778 
Q 2625 1972 2144 2069 
L 1759 2144 
Q 1053 2284 737 2584 
Q 422 2884 422 3419 
Q 422 4038 858 4394 
Q 1294 4750 2059 4750 
Q 2388 4750 2728 4690 
Q 3069 4631 3425 4513 
z
" transform="scale(0.015625)"/>
       <path id="DejaVuSans-63" d="M 3122 3366 
L 3122 2828 
Q 2878 2963 2633 3030 
Q 2388 3097 2138 3097 
Q 1578 3097 1268 2742 
Q 959 2388 959 1747 
Q 959 1106 1268 751 
Q 1578 397 2138 397 
Q 2388 397 2633 464 
Q 2878 531 3122 666 
L 3122 134 
Q 2881 22 2623 -34 
Q 2366 -91 2075 -91 
Q 1284 -91 818 406 
Q 353 903 353 1747 
Q 353 2603 823 3093 
Q 1294 3584 2113 3584 
Q 2378 3584 2631 3529 
Q 2884 3475 3122 3366 
z
" transform="scale(0.015625)"/>
      </defs>
      <use xlink:href="#DejaVuSans-53" transform="translate(0 0.015625)"/>
      <use xlink:href="#DejaVuSans-65" transform="translate(63.476562 0.015625)"/>
      <use xlink:href="#DejaVuSans-6c" transform="translate(125 0.015625)"/>
      <use xlink:href="#DejaVuSans-65" transform="translate(152.783203 0.015625)"/>
      <use xlink:href="#DejaVuSans-63" transform="translate(214.306641 0.015625)"/>
      <use xlink:href="#DejaVuSans-74" transform="translate(269.287109 0.015625)"/>
      <use xlink:href="#DejaVuSans-65" transform="translate(308.496094 0.015625)"/>
      <use xlink:href="#DejaVuSans-64" transform="translate(370.019531 0.015625)"/>
      <use xlink:href="#DejaVuSans-20" transform="translate(433.496094 0.015625)"/>
      <use xlink:href="#DejaVuSans-Oblique-3bb" transform="translate(465.283203 0.015625)"/>
      <use xlink:href="#DejaVuSans-32" transform="translate(524.462891 -16.390625) scale(0.7)"/>
     </g>
    </g>
   </g>
  </g>
  <g id="axes_2">
   <g id="patch_6">
    <path d="M 450.795697 258.84327 
L 793.19952 258.84327 
L 793.19952 22.318125 
L 450.795697 22.318125 
z
" style="fill: #ffffff"/>
   </g>
   <g id="patch_7">
    <path d="M 466.359508 258.84327 
L 474.444604 258.84327 
L 474.444604 33.581227 
L 466.359508 33.581227 
z
" clip-path="url(#p51d7f07d0c)" style="fill: #326eae"/>
   </g>
   <g id="patch_8">
    <path d="M 476.465878 258.84327 
L 484.550974 258.84327 
L 484.550974 120.677417 
L 476.465878 120.677417 
z
" clip-path="url(#p51d7f07d0c)" style="fill: #326eae"/>
   </g>
   <g id="patch_9">
    <path d="M 486.572248 258.84327 
L 494.657344 258.84327 
L 494.657344 223.665361 
L 486.572248 223.665361 
z
" clip-path="url(#p51d7f07d0c)" style="fill: #326eae"/>
   </g>
   <g id="patch_10">
    <path d="M 496.678618 258.84327 
L 504.763714 258.84327 
L 504.763714 223.665361 
L 496.678618 223.665361 
z
" clip-path="url(#p51d7f07d0c)" style="fill: #326eae"/>
   </g>
   <g id="patch_11">
    <path d="M 506.784988 258.84327 
L 514.870085 258.84327 
L 514.870085 220.275985 
L 506.784988 220.275985 
z
" clip-path="url(#p51d7f07d0c)" style="fill: #326eae"/>
   </g>
   <g id="patch_12">
    <path d="M 516.891359 258.84327 
L 524.976455 258.84327 
L 524.976455 92.801638 
L 516.891359 92.801638 
z
" clip-path="url(#p51d7f07d0c)" style="fill: #326eae"/>
   </g>
   <g id="patch_13">
    <path d="M 526.997729 258.84327 
L 535.082825 258.84327 
L 535.082825 201.190341 
L 526.997729 201.190341 
z
" clip-path="url(#p51d7f07d0c)" style="fill: #326eae"/>
   </g>
   <g id="patch_14">
    <path d="M 537.104099 258.84327 
L 545.189195 258.84327 
L 545.189195 201.190341 
L 537.104099 201.190341 
z
" clip-path="url(#p51d7f07d0c)" style="fill: #326eae"/>
   </g>
   <g id="patch_15">
    <path d="M 547.210469 258.84327 
L 555.295565 258.84327 
L 555.295565 227.633079 
L 547.210469 227.633079 
z
" clip-path="url(#p51d7f07d0c)" style="fill: #326eae"/>
   </g>
   <g id="patch_16">
    <path d="M 557.316839 258.84327 
L 565.401936 258.84327 
L 565.401936 227.633079 
L 557.316839 227.633079 
z
" clip-path="url(#p51d7f07d0c)" style="fill: #326eae"/>
   </g>
   <g id="patch_17">
    <path d="M 567.42321 258.84327 
L 575.508306 258.84327 
L 575.508306 225.410449 
L 567.42321 225.410449 
z
" clip-path="url(#p51d7f07d0c)" style="fill: #326eae"/>
   </g>
   <g id="patch_18">
    <path d="M 577.52958 258.84327 
L 585.614676 258.84327 
L 585.614676 225.410449 
L 577.52958 225.410449 
z
" clip-path="url(#p51d7f07d0c)" style="fill: #326eae"/>
   </g>
   <g id="patch_19">
    <path d="M 587.63595 258.84327 
L 595.721046 258.84327 
L 595.721046 208.054782 
L 587.63595 208.054782 
z
" clip-path="url(#p51d7f07d0c)" style="fill: #326eae"/>
   </g>
   <g id="patch_20">
    <path d="M 597.74232 258.84327 
L 605.827416 258.84327 
L 605.827416 197.364491 
L 597.74232 197.364491 
z
" clip-path="url(#p51d7f07d0c)" style="fill: #326eae"/>
   </g>
   <g id="patch_21">
    <path d="M 607.84869 258.84327 
L 615.933787 258.84327 
L 615.933787 201.392372 
L 607.84869 201.392372 
z
" clip-path="url(#p51d7f07d0c)" style="fill: #326eae"/>
   </g>
   <g id="patch_22">
    <path d="M 617.955061 258.84327 
L 626.040157 258.84327 
L 626.040157 224.418828 
L 617.955061 224.418828 
z
" clip-path="url(#p51d7f07d0c)" style="fill: #326eae"/>
   </g>
   <g id="patch_23">
    <path d="M 628.061431 258.84327 
L 636.146527 258.84327 
L 636.146527 224.418828 
L 628.061431 224.418828 
z
" clip-path="url(#p51d7f07d0c)" style="fill: #326eae"/>
   </g>
   <g id="patch_24">
    <path d="M 638.167801 258.84327 
L 646.252897 258.84327 
L 646.252897 211.714554 
L 638.167801 211.714554 
z
" clip-path="url(#p51d7f07d0c)" style="fill: #326eae"/>
   </g>
   <g id="patch_25">
    <path d="M 648.274171 258.84327 
L 656.359267 258.84327 
L 656.359267 211.714554 
L 648.274171 211.714554 
z
" clip-path="url(#p51d7f07d0c)" style="fill: #326eae"/>
   </g>
   <g id="patch_26">
    <path d="M 658.380541 258.84327 
L 666.465638 258.84327 
L 666.465638 203.473719 
L 658.380541 203.473719 
z
" clip-path="url(#p51d7f07d0c)" style="fill: #326eae"/>
   </g>
   <g id="patch_27">
    <path d="M 668.486912 258.84327 
L 676.572008 258.84327 
L 676.572008 229.693055 
L 668.486912 229.693055 
z
" clip-path="url(#p51d7f07d0c)" style="fill: #326eae"/>
   </g>
   <g id="patch_28">
    <path d="M 678.593282 258.84327 
L 686.678378 258.84327 
L 686.678378 229.693055 
L 678.593282 229.693055 
z
" clip-path="url(#p51d7f07d0c)" style="fill: #326eae"/>
   </g>
   <g id="patch_29">
    <path d="M 688.699652 258.84327 
L 696.784748 258.84327 
L 696.784748 221.73183 
L 688.699652 221.73183 
z
" clip-path="url(#p51d7f07d0c)" style="fill: #326eae"/>
   </g>
   <g id="patch_30">
    <path d="M 698.806022 258.84327 
L 706.891118 258.84327 
L 706.891118 191.657177 
L 698.806022 191.657177 
z
" clip-path="url(#p51d7f07d0c)" style="fill: #326eae"/>
   </g>
   <g id="patch_31">
    <path d="M 708.912393 258.84327 
L 716.997489 258.84327 
L 716.997489 253.303391 
L 708.912393 253.303391 
z
" clip-path="url(#p51d7f07d0c)" style="fill: #326eae"/>
   </g>
   <g id="patch_32">
    <path d="M 719.018763 258.84327 
L 727.103859 258.84327 
L 727.103859 253.303391 
L 719.018763 253.303391 
z
" clip-path="url(#p51d7f07d0c)" style="fill: #326eae"/>
   </g>
   <g id="patch_33">
    <path d="M 729.125133 258.84327 
L 737.210229 258.84327 
L 737.210229 250.833638 
L 729.125133 250.833638 
z
" clip-path="url(#p51d7f07d0c)" style="fill: #326eae"/>
   </g>
   <g id="patch_34">
    <path d="M 739.231503 258.84327 
L 747.316599 258.84327 
L 747.316599 250.833638 
L 739.231503 250.833638 
z
" clip-path="url(#p51d7f07d0c)" style="fill: #326eae"/>
   </g>
   <g id="patch_35">
    <path d="M 749.337873 258.84327 
L 757.422969 258.84327 
L 757.422969 229.298364 
L 749.337873 229.298364 
z
" clip-path="url(#p51d7f07d0c)" style="fill: #326eae"/>
   </g>
   <g id="patch_36">
    <path d="M 759.444244 258.84327 
L 767.52934 258.84327 
L 767.52934 229.298364 
L 759.444244 229.298364 
z
" clip-path="url(#p51d7f07d0c)" style="fill: #326eae"/>
   </g>
   <g id="patch_37">
    <path d="M 769.550614 258.84327 
L 777.63571 258.84327 
L 777.63571 240.472721 
L 769.550614 240.472721 
z
" clip-path="url(#p51d7f07d0c)" style="fill: #326eae"/>
   </g>
   <g id="patch_38">
    <path d="M 466.359508 258.84327 
L 474.444604 258.84327 
L 474.444604 33.581227 
L 466.359508 33.581227 
z
" clip-path="url(#p51d7f07d0c)" style="fill: #d97932"/>
   </g>
   <g id="matplotlib.axis_3">
    <g id="xtick_10">
     <g id="line2d_27">
      <g>
       <use xlink:href="#m92bca80ba8" x="490.614796" y="258.84327" style="stroke: #000000; stroke-width: 0.8"/>
      </g>
     </g>
     <g id="text_22">
      <!-- 4 -->
      <g transform="translate(487.433546 273.441707) scale(0.1 -0.1)">
       <use xlink:href="#DejaVuSans-34"/>
      </g>
     </g>
    </g>
    <g id="xtick_11">
     <g id="line2d_28">
      <g>
       <use xlink:href="#m92bca80ba8" x="531.040277" y="258.84327" style="stroke: #000000; stroke-width: 0.8"/>
      </g>
     </g>
     <g id="text_23">
      <!-- 8 -->
      <g transform="translate(527.859027 273.441707) scale(0.1 -0.1)">
       <use xlink:href="#DejaVuSans-38"/>
      </g>
     </g>
    </g>
    <g id="xtick_12">
     <g id="line2d_29">
      <g>
       <use xlink:href="#m92bca80ba8" x="571.465758" y="258.84327" style="stroke: #000000; stroke-width: 0.8"/>
      </g>
     </g>
     <g id="text_24">
      <!-- 12 -->
      <g transform="translate(565.103258 273.441707) scale(0.1 -0.1)">
       <use xlink:href="#DejaVuSans-31"/>
       <use xlink:href="#DejaVuSans-32" x="63.623047"/>
      </g>
     </g>
    </g>
    <g id="xtick_13">
     <g id="line2d_30">
      <g>
       <use xlink:href="#m92bca80ba8" x="611.891239" y="258.84327" style="stroke: #000000; stroke-width: 0.8"/>
      </g>
     </g>
     <g id="text_25">
      <!-- 16 -->
      <g transform="translate(605.528739 273.441707) scale(0.1 -0.1)">
       <use xlink:href="#DejaVuSans-31"/>
       <use xlink:href="#DejaVuSans-36" x="63.623047"/>
      </g>
     </g>
    </g>
    <g id="xtick_14">
     <g id="line2d_31">
      <g>
       <use xlink:href="#m92bca80ba8" x="652.316719" y="258.84327" style="stroke: #000000; stroke-width: 0.8"/>
      </g>
     </g>
     <g id="text_26">
      <!-- 20 -->
      <g transform="translate(645.954219 273.441707) scale(0.1 -0.1)">
       <use xlink:href="#DejaVuSans-32"/>
       <use xlink:href="#DejaVuSans-30" x="63.623047"/>
      </g>
     </g>
    </g>
    <g id="xtick_15">
     <g id="line2d_32">
      <g>
       <use xlink:href="#m92bca80ba8" x="692.7422" y="258.84327" style="stroke: #000000; stroke-width: 0.8"/>
      </g>
     </g>
     <g id="text_27">
      <!-- 24 -->
      <g transform="translate(686.3797 273.441707) scale(0.1 -0.1)">
       <use xlink:href="#DejaVuSans-32"/>
       <use xlink:href="#DejaVuSans-34" x="63.623047"/>
      </g>
     </g>
    </g>
    <g id="xtick_16">
     <g id="line2d_33">
      <g>
       <use xlink:href="#m92bca80ba8" x="733.167681" y="258.84327" style="stroke: #000000; stroke-width: 0.8"/>
      </g>
     </g>
     <g id="text_28">
      <!-- 28 -->
      <g transform="translate(726.805181 273.441707) scale(0.1 -0.1)">
       <use xlink:href="#DejaVuSans-32"/>
       <use xlink:href="#DejaVuSans-38" x="63.623047"/>
      </g>
     </g>
    </g>
    <g id="xtick_17">
     <g id="line2d_34">
      <g>
       <use xlink:href="#m92bca80ba8" x="773.593162" y="258.84327" style="stroke: #000000; stroke-width: 0.8"/>
      </g>
     </g>
     <g id="text_29">
      <!-- 32 -->
      <g transform="translate(767.230662 273.441707) scale(0.1 -0.1)">
       <use xlink:href="#DejaVuSans-33"/>
       <use xlink:href="#DejaVuSans-32" x="63.623047"/>
      </g>
     </g>
    </g>
    <g id="text_30">
     <!-- Candidate index j -->
     <g transform="translate(578.187452 287.119832) scale(0.1 -0.1)">
      <defs>
       <path id="DejaVuSans-43" d="M 4122 4306 
L 4122 3641 
Q 3803 3938 3442 4084 
Q 3081 4231 2675 4231 
Q 1875 4231 1450 3742 
Q 1025 3253 1025 2328 
Q 1025 1406 1450 917 
Q 1875 428 2675 428 
Q 3081 428 3442 575 
Q 3803 722 4122 1019 
L 4122 359 
Q 3791 134 3420 21 
Q 3050 -91 2638 -91 
Q 1578 -91 968 557 
Q 359 1206 359 2328 
Q 359 3453 968 4101 
Q 1578 4750 2638 4750 
Q 3056 4750 3426 4639 
Q 3797 4528 4122 4306 
z
" transform="scale(0.015625)"/>
      </defs>
      <use xlink:href="#DejaVuSans-43"/>
      <use xlink:href="#DejaVuSans-61" x="69.824219"/>
      <use xlink:href="#DejaVuSans-6e" x="131.103516"/>
      <use xlink:href="#DejaVuSans-64" x="194.482422"/>
      <use xlink:href="#DejaVuSans-69" x="257.958984"/>
      <use xlink:href="#DejaVuSans-64" x="285.742188"/>
      <use xlink:href="#DejaVuSans-61" x="349.21875"/>
      <use xlink:href="#DejaVuSans-74" x="410.498047"/>
      <use xlink:href="#DejaVuSans-65" x="449.707031"/>
      <use xlink:href="#DejaVuSans-20" x="511.230469"/>
      <use xlink:href="#DejaVuSans-69" x="543.017578"/>
      <use xlink:href="#DejaVuSans-6e" x="570.800781"/>
      <use xlink:href="#DejaVuSans-64" x="634.179688"/>
      <use xlink:href="#DejaVuSans-65" x="697.65625"/>
      <use xlink:href="#DejaVuSans-78" x="757.429688"/>
      <use xlink:href="#DejaVuSans-20" x="816.609375"/>
      <use xlink:href="#DejaVuSans-6a" x="848.396484"/>
     </g>
    </g>
   </g>
   <g id="matplotlib.axis_4">
    <g id="ytick_9">
     <g id="line2d_35">
      <path d="M 450.795697 258.84327 
L 793.19952 258.84327 
" clip-path="url(#p51d7f07d0c)" style="fill: none; stroke: #b0b0b0; stroke-opacity: 0.2; stroke-width: 0.8; stroke-linecap: square"/>
     </g>
     <g id="line2d_36">
      <g>
       <use xlink:href="#med7ae17ad9" x="450.795697" y="258.84327" style="stroke: #000000; stroke-width: 0.8"/>
      </g>
     </g>
     <g id="text_31">
      <!-- 0.000 -->
      <g transform="translate(415.167572 262.642489) scale(0.1 -0.1)">
       <use xlink:href="#DejaVuSans-30"/>
       <use xlink:href="#DejaVuSans-2e" x="63.623047"/>
       <use xlink:href="#DejaVuSans-30" x="95.410156"/>
       <use xlink:href="#DejaVuSans-30" x="159.033203"/>
       <use xlink:href="#DejaVuSans-30" x="222.65625"/>
      </g>
     </g>
    </g>
    <g id="ytick_10">
     <g id="line2d_37">
      <path d="M 450.795697 223.776331 
L 793.19952 223.776331 
" clip-path="url(#p51d7f07d0c)" style="fill: none; stroke: #b0b0b0; stroke-opacity: 0.2; stroke-width: 0.8; stroke-linecap: square"/>
     </g>
     <g id="line2d_38">
      <g>
       <use xlink:href="#med7ae17ad9" x="450.795697" y="223.776331" style="stroke: #000000; stroke-width: 0.8"/>
      </g>
     </g>
     <g id="text_32">
      <!-- 0.001 -->
      <g transform="translate(415.167572 227.57555) scale(0.1 -0.1)">
       <use xlink:href="#DejaVuSans-30"/>
       <use xlink:href="#DejaVuSans-2e" x="63.623047"/>
       <use xlink:href="#DejaVuSans-30" x="95.410156"/>
       <use xlink:href="#DejaVuSans-30" x="159.033203"/>
       <use xlink:href="#DejaVuSans-31" x="222.65625"/>
      </g>
     </g>
    </g>
    <g id="ytick_11">
     <g id="line2d_39">
      <path d="M 450.795697 188.709393 
L 793.19952 188.709393 
" clip-path="url(#p51d7f07d0c)" style="fill: none; stroke: #b0b0b0; stroke-opacity: 0.2; stroke-width: 0.8; stroke-linecap: square"/>
     </g>
     <g id="line2d_40">
      <g>
       <use xlink:href="#med7ae17ad9" x="450.795697" y="188.709393" style="stroke: #000000; stroke-width: 0.8"/>
      </g>
     </g>
     <g id="text_33">
      <!-- 0.002 -->
      <g transform="translate(415.167572 192.508611) scale(0.1 -0.1)">
       <use xlink:href="#DejaVuSans-30"/>
       <use xlink:href="#DejaVuSans-2e" x="63.623047"/>
       <use xlink:href="#DejaVuSans-30" x="95.410156"/>
       <use xlink:href="#DejaVuSans-30" x="159.033203"/>
       <use xlink:href="#DejaVuSans-32" x="222.65625"/>
      </g>
     </g>
    </g>
    <g id="ytick_12">
     <g id="line2d_41">
      <path d="M 450.795697 153.642454 
L 793.19952 153.642454 
" clip-path="url(#p51d7f07d0c)" style="fill: none; stroke: #b0b0b0; stroke-opacity: 0.2; stroke-width: 0.8; stroke-linecap: square"/>
     </g>
     <g id="line2d_42">
      <g>
       <use xlink:href="#med7ae17ad9" x="450.795697" y="153.642454" style="stroke: #000000; stroke-width: 0.8"/>
      </g>
     </g>
     <g id="text_34">
      <!-- 0.003 -->
      <g transform="translate(415.167572 157.441673) scale(0.1 -0.1)">
       <use xlink:href="#DejaVuSans-30"/>
       <use xlink:href="#DejaVuSans-2e" x="63.623047"/>
       <use xlink:href="#DejaVuSans-30" x="95.410156"/>
       <use xlink:href="#DejaVuSans-30" x="159.033203"/>
       <use xlink:href="#DejaVuSans-33" x="222.65625"/>
      </g>
     </g>
    </g>
    <g id="ytick_13">
     <g id="line2d_43">
      <path d="M 450.795697 118.575515 
L 793.19952 118.575515 
" clip-path="url(#p51d7f07d0c)" style="fill: none; stroke: #b0b0b0; stroke-opacity: 0.2; stroke-width: 0.8; stroke-linecap: square"/>
     </g>
     <g id="line2d_44">
      <g>
       <use xlink:href="#med7ae17ad9" x="450.795697" y="118.575515" style="stroke: #000000; stroke-width: 0.8"/>
      </g>
     </g>
     <g id="text_35">
      <!-- 0.004 -->
      <g transform="translate(415.167572 122.374734) scale(0.1 -0.1)">
       <use xlink:href="#DejaVuSans-30"/>
       <use xlink:href="#DejaVuSans-2e" x="63.623047"/>
       <use xlink:href="#DejaVuSans-30" x="95.410156"/>
       <use xlink:href="#DejaVuSans-30" x="159.033203"/>
       <use xlink:href="#DejaVuSans-34" x="222.65625"/>
      </g>
     </g>
    </g>
    <g id="ytick_14">
     <g id="line2d_45">
      <path d="M 450.795697 83.508576 
L 793.19952 83.508576 
" clip-path="url(#p51d7f07d0c)" style="fill: none; stroke: #b0b0b0; stroke-opacity: 0.2; stroke-width: 0.8; stroke-linecap: square"/>
     </g>
     <g id="line2d_46">
      <g>
       <use xlink:href="#med7ae17ad9" x="450.795697" y="83.508576" style="stroke: #000000; stroke-width: 0.8"/>
      </g>
     </g>
     <g id="text_36">
      <!-- 0.005 -->
      <g transform="translate(415.167572 87.307795) scale(0.1 -0.1)">
       <use xlink:href="#DejaVuSans-30"/>
       <use xlink:href="#DejaVuSans-2e" x="63.623047"/>
       <use xlink:href="#DejaVuSans-30" x="95.410156"/>
       <use xlink:href="#DejaVuSans-30" x="159.033203"/>
       <use xlink:href="#DejaVuSans-35" x="222.65625"/>
      </g>
     </g>
    </g>
    <g id="ytick_15">
     <g id="line2d_47">
      <path d="M 450.795697 48.441638 
L 793.19952 48.441638 
" clip-path="url(#p51d7f07d0c)" style="fill: none; stroke: #b0b0b0; stroke-opacity: 0.2; stroke-width: 0.8; stroke-linecap: square"/>
     </g>
     <g id="line2d_48">
      <g>
       <use xlink:href="#med7ae17ad9" x="450.795697" y="48.441638" style="stroke: #000000; stroke-width: 0.8"/>
      </g>
     </g>
     <g id="text_37">
      <!-- 0.006 -->
      <g transform="translate(415.167572 52.240856) scale(0.1 -0.1)">
       <use xlink:href="#DejaVuSans-30"/>
       <use xlink:href="#DejaVuSans-2e" x="63.623047"/>
       <use xlink:href="#DejaVuSans-30" x="95.410156"/>
       <use xlink:href="#DejaVuSans-30" x="159.033203"/>
       <use xlink:href="#DejaVuSans-36" x="222.65625"/>
      </g>
     </g>
    </g>
    <g id="text_38">
     <!-- min(left gap, right gap) -->
     <g transform="translate(409.087885 198.937729) rotate(-90) scale(0.1 -0.1)">
      <defs>
       <path id="DejaVuSans-66" d="M 2375 4863 
L 2375 4384 
L 1825 4384 
Q 1516 4384 1395 4259 
Q 1275 4134 1275 3809 
L 1275 3500 
L 2222 3500 
L 2222 3053 
L 1275 3053 
L 1275 0 
L 697 0 
L 697 3053 
L 147 3053 
L 147 3500 
L 697 3500 
L 697 3744 
Q 697 4328 969 4595 
Q 1241 4863 1831 4863 
L 2375 4863 
z
" transform="scale(0.015625)"/>
       <path id="DejaVuSans-70" d="M 1159 525 
L 1159 -1331 
L 581 -1331 
L 581 3500 
L 1159 3500 
L 1159 2969 
Q 1341 3281 1617 3432 
Q 1894 3584 2278 3584 
Q 2916 3584 3314 3078 
Q 3713 2572 3713 1747 
Q 3713 922 3314 415 
Q 2916 -91 2278 -91 
Q 1894 -91 1617 61 
Q 1341 213 1159 525 
z
M 3116 1747 
Q 3116 2381 2855 2742 
Q 2594 3103 2138 3103 
Q 1681 3103 1420 2742 
Q 1159 2381 1159 1747 
Q 1159 1113 1420 752 
Q 1681 391 2138 391 
Q 2594 391 2855 752 
Q 3116 1113 3116 1747 
z
" transform="scale(0.015625)"/>
       <path id="DejaVuSans-2c" d="M 750 794 
L 1409 794 
L 1409 256 
L 897 -744 
L 494 -744 
L 750 256 
L 750 794 
z
" transform="scale(0.015625)"/>
       <path id="DejaVuSans-72" d="M 2631 2963 
Q 2534 3019 2420 3045 
Q 2306 3072 2169 3072 
Q 1681 3072 1420 2755 
Q 1159 2438 1159 1844 
L 1159 0 
L 581 0 
L 581 3500 
L 1159 3500 
L 1159 2956 
Q 1341 3275 1631 3429 
Q 1922 3584 2338 3584 
Q 2397 3584 2469 3576 
Q 2541 3569 2628 3553 
L 2631 2963 
z
" transform="scale(0.015625)"/>
       <path id="DejaVuSans-68" d="M 3513 2113 
L 3513 0 
L 2938 0 
L 2938 2094 
Q 2938 2591 2744 2837 
Q 2550 3084 2163 3084 
Q 1697 3084 1428 2787 
Q 1159 2491 1159 1978 
L 1159 0 
L 581 0 
L 581 4863 
L 1159 4863 
L 1159 2956 
Q 1366 3272 1645 3428 
Q 1925 3584 2291 3584 
Q 2894 3584 3203 3211 
Q 3513 2838 3513 2113 
z
" transform="scale(0.015625)"/>
      </defs>
      <use xlink:href="#DejaVuSans-6d"/>
      <use xlink:href="#DejaVuSans-69" x="97.412109"/>
      <use xlink:href="#DejaVuSans-6e" x="125.195312"/>
      <use xlink:href="#DejaVuSans-28" x="188.574219"/>
      <use xlink:href="#DejaVuSans-6c" x="227.587891"/>
      <use xlink:href="#DejaVuSans-65" x="255.371094"/>
      <use xlink:href="#DejaVuSans-66" x="316.894531"/>
      <use xlink:href="#DejaVuSans-74" x="350.349609"/>
      <use xlink:href="#DejaVuSans-20" x="389.558594"/>
      <use xlink:href="#DejaVuSans-67" x="421.345703"/>
      <use xlink:href="#DejaVuSans-61" x="484.822266"/>
      <use xlink:href="#DejaVuSans-70" x="546.101562"/>
      <use xlink:href="#DejaVuSans-2c" x="609.578125"/>
      <use xlink:href="#DejaVuSans-20" x="641.365234"/>
      <use xlink:href="#DejaVuSans-72" x="673.152344"/>
      <use xlink:href="#DejaVuSans-69" x="714.265625"/>
      <use xlink:href="#DejaVuSans-67" x="742.048828"/>
      <use xlink:href="#DejaVuSans-68" x="805.525391"/>
      <use xlink:href="#DejaVuSans-74" x="868.904297"/>
      <use xlink:href="#DejaVuSans-20" x="908.113281"/>
      <use xlink:href="#DejaVuSans-67" x="939.900391"/>
      <use xlink:href="#DejaVuSans-61" x="1003.376953"/>
      <use xlink:href="#DejaVuSans-70" x="1064.65625"/>
      <use xlink:href="#DejaVuSans-29" x="1128.132812"/>
     </g>
    </g>
   </g>
   <g id="patch_39">
    <path d="M 450.795697 258.84327 
L 450.795697 22.318125 
" style="fill: none; stroke: #000000; stroke-width: 0.8; stroke-linejoin: miter; stroke-linecap: square"/>
   </g>
   <g id="patch_40">
    <path d="M 450.795697 258.84327 
L 793.19952 258.84327 
" style="fill: none; stroke: #000000; stroke-width: 0.8; stroke-linejoin: miter; stroke-linecap: square"/>
   </g>
   <g id="text_39">
    <!-- Two-sided eigenvalue isolation -->
    <g transform="translate(530.199484 16.318125) scale(0.12 -0.12)">
     <defs>
      <path id="DejaVuSans-54" d="M -19 4666 
L 3928 4666 
L 3928 4134 
L 2272 4134 
L 2272 0 
L 1638 0 
L 1638 4134 
L -19 4134 
L -19 4666 
z
" transform="scale(0.015625)"/>
      <path id="DejaVuSans-77" d="M 269 3500 
L 844 3500 
L 1563 769 
L 2278 3500 
L 2956 3500 
L 3675 769 
L 4391 3500 
L 4966 3500 
L 4050 0 
L 3372 0 
L 2619 2869 
L 1863 0 
L 1184 0 
L 269 3500 
z
" transform="scale(0.015625)"/>
      <path id="DejaVuSans-6f" d="M 1959 3097 
Q 1497 3097 1228 2736 
Q 959 2375 959 1747 
Q 959 1119 1226 758 
Q 1494 397 1959 397 
Q 2419 397 2687 759 
Q 2956 1122 2956 1747 
Q 2956 2369 2687 2733 
Q 2419 3097 1959 3097 
z
M 1959 3584 
Q 2709 3584 3137 3096 
Q 3566 2609 3566 1747 
Q 3566 888 3137 398 
Q 2709 -91 1959 -91 
Q 1206 -91 779 398 
Q 353 888 353 1747 
Q 353 2609 779 3096 
Q 1206 3584 1959 3584 
z
" transform="scale(0.015625)"/>
     </defs>
     <use xlink:href="#DejaVuSans-54"/>
     <use xlink:href="#DejaVuSans-77" x="44.583984"/>
     <use xlink:href="#DejaVuSans-6f" x="126.371094"/>
     <use xlink:href="#DejaVuSans-2d" x="189.427734"/>
     <use xlink:href="#DejaVuSans-73" x="225.511719"/>
     <use xlink:href="#DejaVuSans-69" x="277.611328"/>
     <use xlink:href="#DejaVuSans-64" x="305.394531"/>
     <use xlink:href="#DejaVuSans-65" x="368.871094"/>
     <use xlink:href="#DejaVuSans-64" x="430.394531"/>
     <use xlink:href="#DejaVuSans-20" x="493.871094"/>
     <use xlink:href="#DejaVuSans-65" x="525.658203"/>
     <use xlink:href="#DejaVuSans-69" x="587.181641"/>
     <use xlink:href="#DejaVuSans-67" x="614.964844"/>
     <use xlink:href="#DejaVuSans-65" x="678.441406"/>
     <use xlink:href="#DejaVuSans-6e" x="739.964844"/>
     <use xlink:href="#DejaVuSans-76" x="803.34375"/>
     <use xlink:href="#DejaVuSans-61" x="862.523438"/>
     <use xlink:href="#DejaVuSans-6c" x="923.802734"/>
     <use xlink:href="#DejaVuSans-75" x="951.585938"/>
     <use xlink:href="#DejaVuSans-65" x="1014.964844"/>
     <use xlink:href="#DejaVuSans-20" x="1076.488281"/>
     <use xlink:href="#DejaVuSans-69" x="1108.275391"/>
     <use xlink:href="#DejaVuSans-73" x="1136.058594"/>
     <use xlink:href="#DejaVuSans-6f" x="1188.158203"/>
     <use xlink:href="#DejaVuSans-6c" x="1249.339844"/>
     <use xlink:href="#DejaVuSans-61" x="1277.123047"/>
     <use xlink:href="#DejaVuSans-74" x="1338.402344"/>
     <use xlink:href="#DejaVuSans-69" x="1377.611328"/>
     <use xlink:href="#DejaVuSans-6f" x="1405.394531"/>
     <use xlink:href="#DejaVuSans-6e" x="1466.576172"/>
    </g>
   </g>
  </g>
 </g>
 <defs>
  <clipPath id="p829476ed5d">
   <rect x="51.165625" y="22.318125" width="342.403822" height="236.525145"/>
  </clipPath>
  <clipPath id="p51d7f07d0c">
   <rect x="450.795697" y="22.318125" width="342.403823" height="236.525145"/>
  </clipPath>
 </defs>
</svg>
